<?xml version="1.0" encoding="utf-8"?>
<!-- Designed by Vexels.com - 2016 All Rights Reserved - https://vexels.com/terms-and-conditions/  -->

<svg version="1.1" id="Capa_1" xmlns="http://www.w3.org/2000/svg" xmlns:xlink="http://www.w3.org/1999/xlink" x="0px" y="0px"
	 width="1200px" height="1200px" viewBox="0 0 1200 1200" enable-background="new 0 0 1200 1200" xml:space="preserve">
<g id="VEXELS">
</g>
<g>
	<g id="BACKGROUND">
		<g>
			<g>
				<circle fill="#0D64D2" cx="599.999" cy="600" r="549.998"/>
				<g>
					<path fill="#FFFFFF" d="M576.458,599.982c0,75.808-61.445,137.229-137.256,137.229c-75.76,0-137.115-61.421-137.115-137.229
						c0-75.76,61.355-137.195,137.115-137.195C515.013,462.787,576.458,524.222,576.458,599.982z"/>
					<g>
						<path fill="#FF0080" d="M897.917,599.982c0,75.808-61.451,137.229-137.154,137.229c-75.811,0-137.25-61.421-137.25-137.229
							c0-75.76,61.439-137.195,137.25-137.195C836.466,462.787,897.917,524.222,897.917,599.982z"/>
					</g>
				</g>
			</g>
			<g>
				<path opacity="0.2" enable-background="new    " d="M1123.638,768.752c-54.068,167.826-186.545,300.419-354.285,354.66
					L351.205,705.263c23.806,19.94,54.478,31.967,87.993,31.967c73.247,0,133.124-57.362,137.067-129.636l47.691-18.566
					c-0.279,3.617-0.443,7.272-0.443,10.974c0,75.808,61.42,137.229,137.27,137.229c75.684,0,137.154-61.421,137.154-137.229
					c0-39.686-16.863-75.443-43.795-100.508l0.193-0.08L1123.638,768.752z"/>
				<g>
					<g opacity="0.1">
						<path d="M897.937,600.001c0,75.808-61.471,137.229-137.154,137.229c-75.85,0-137.27-61.421-137.27-137.229
							c0-3.701,0.164-7.352,0.443-10.974c5.566-70.645,64.678-126.261,136.826-126.261c36.035,0,68.814,13.933,93.359,36.722
							C881.074,524.558,897.937,560.311,897.937,600.001z"/>
					</g>
				</g>
			</g>
			<line fill="none" x1="854.142" y1="499.489" x2="623.957" y2="589.028"/>
		</g>
	</g>
</g>
</svg>
